<svg width="720" height="1024" viewBox="0 0 720 1024" fill="none" xmlns="http://www.w3.org/2000/svg">
<circle cx="723.5" cy="806.5" r="143.5" fill="#737994" fill-opacity="0.8"/>
<circle cx="723.5" cy="806.5" r="143.5" fill="#414559" fill-opacity="0.8"/>
<circle cx="638.5" cy="981.5" r="143.5" fill="#737994" fill-opacity="0.8"/>
<circle cx="638.5" cy="981.5" r="143.5" fill="#B6585A" fill-opacity="0.8"/>
<circle cx="579.5" cy="925.5" r="143.5" fill="#737994" fill-opacity="0.8"/>
<circle cx="579.5" cy="925.5" r="143.5" fill="#FFAFB1" fill-opacity="0.8"/>
<circle cx="415.5" cy="981.5" r="143.5" fill="#737994" fill-opacity="0.8"/>
<circle cx="415.5" cy="981.5" r="143.5" fill="#E78284" fill-opacity="0.8"/>
<circle cx="622.5" cy="793.5" r="143.5" fill="#737994" fill-opacity="0.8"/>
<circle cx="622.5" cy="793.5" r="143.5" fill="#E78284" fill-opacity="0.8"/>
<circle cx="351.5" cy="892.5" r="143.5" fill="#CD7072" fill-opacity="0.8"/>
<circle cx="486.5" cy="774.5" r="143.5" fill="#FFAFB1" fill-opacity="0.8"/>
<circle cx="436.5" cy="638.5" r="143.5" fill="#737994" fill-opacity="0.8"/>
<circle cx="436.5" cy="638.5" r="143.5" fill="#737994" fill-opacity="0.8"/>
<circle cx="552.5" cy="730.5" r="143.5" fill="#B6585A" fill-opacity="0.8"/>
<circle cx="552.5" cy="730.5" r="143.5" fill="#B6585A" fill-opacity="0.8"/>
<circle cx="814.5" cy="482.5" r="143.5" fill="#737994" fill-opacity="0.8"/>
<circle cx="814.5" cy="482.5" r="143.5" fill="#414559" fill-opacity="0.8"/>
<circle cx="729.5" cy="657.5" r="143.5" fill="#737994" fill-opacity="0.8"/>
<circle cx="729.5" cy="657.5" r="143.5" fill="#B6585A" fill-opacity="0.8"/>
<circle cx="670.5" cy="601.5" r="143.5" fill="#737994" fill-opacity="0.8"/>
<circle cx="670.5" cy="601.5" r="143.5" fill="#FFAFB1" fill-opacity="0.8"/>
<circle cx="506.5" cy="657.5" r="143.5" fill="#737994" fill-opacity="0.8"/>
<circle cx="506.5" cy="657.5" r="143.5" fill="#E78284" fill-opacity="0.8"/>
<circle cx="713.5" cy="469.5" r="143.5" fill="#737994" fill-opacity="0.8"/>
<circle cx="713.5" cy="469.5" r="143.5" fill="#E78284" fill-opacity="0.8"/>
<circle cx="442.5" cy="568.5" r="143.5" fill="#CD7072" fill-opacity="0.8"/>
<circle cx="616.5" cy="401.5" r="143.5" fill="#CD7072" fill-opacity="0.8"/>
<circle cx="495.5" cy="425.5" r="143.5" fill="#B6585A" fill-opacity="0.8"/>
<circle cx="100.5" cy="991.5" r="143.5" fill="#B6585A" fill-opacity="0.8"/>
<circle cx="100.5" cy="991.5" r="143.5" fill="#B6585A" fill-opacity="0.8"/>
<circle cx="362.5" cy="743.5" r="143.5" fill="#737994" fill-opacity="0.8"/>
<circle cx="362.5" cy="743.5" r="143.5" fill="#B6585A" fill-opacity="0.8"/>
<circle cx="277.5" cy="918.5" r="143.5" fill="#737994" fill-opacity="0.8"/>
<circle cx="277.5" cy="918.5" r="143.5" fill="#B6585A" fill-opacity="0.8"/>
<circle cx="218.5" cy="862.5" r="143.5" fill="#737994" fill-opacity="0.8"/>
<circle cx="218.5" cy="862.5" r="143.5" fill="#FFAFB1" fill-opacity="0.8"/>
<circle cx="54.5" cy="918.5" r="143.5" fill="#737994" fill-opacity="0.8"/>
<circle cx="54.5" cy="918.5" r="143.5" fill="#E78284" fill-opacity="0.8"/>
<circle cx="261.5" cy="730.5" r="143.5" fill="#CD7072" fill-opacity="0.8"/>
<circle cx="261.5" cy="730.5" r="143.5" fill="#CD7072" fill-opacity="0.8"/>
<circle cx="-9.5" cy="829.5" r="143.5" fill="#CD7072" fill-opacity="0.8"/>
<circle cx="164.5" cy="662.5" r="143.5" fill="#CD7072" fill-opacity="0.8"/>
<circle cx="43.5" cy="686.5" r="143.5" fill="#B6585A" fill-opacity="0.8"/>
<circle cx="413.5" cy="491.5" r="143.5" fill="#FFAFB1" fill-opacity="0.8"/>
<circle cx="670.5" cy="120.5" r="143.5" fill="#737994" fill-opacity="0.8"/>
<circle cx="670.5" cy="120.5" r="143.5" fill="#B6585A" fill-opacity="0.8"/>
<circle cx="585.5" cy="295.5" r="143.5" fill="#737994" fill-opacity="0.8"/>
<circle cx="585.5" cy="295.5" r="143.5" fill="#B6585A" fill-opacity="0.8"/>
<circle cx="526.5" cy="239.5" r="143.5" fill="#737994" fill-opacity="0.8"/>
<circle cx="526.5" cy="239.5" r="143.5" fill="#FFAFB1" fill-opacity="0.8"/>
<circle cx="362.5" cy="295.5" r="143.5" fill="#737994" fill-opacity="0.8"/>
<circle cx="362.5" cy="295.5" r="143.5" fill="#E78284" fill-opacity="0.8"/>
<circle cx="569.5" cy="107.5" r="143.5" fill="#737994" fill-opacity="0.8"/>
<circle cx="569.5" cy="107.5" r="143.5" fill="#E78284" fill-opacity="0.8"/>
<circle cx="298.5" cy="206.5" r="143.5" fill="#CD7072" fill-opacity="0.8"/>
<circle cx="472.5" cy="39.5" r="143.5" fill="#CD7072" fill-opacity="0.8"/>
<circle cx="355.5" cy="126.5" r="143.5" fill="#FFAFB1" fill-opacity="0.8"/>
<circle cx="121.5" cy="648.5" r="143.5" fill="#B6585A" fill-opacity="0.8"/>
<circle cx="121.5" cy="648.5" r="143.5" fill="#B6585A" fill-opacity="0.8"/>
<circle cx="383.5" cy="400.5" r="143.5" fill="#737994" fill-opacity="0.8"/>
<circle cx="383.5" cy="400.5" r="143.5" fill="#B6585A" fill-opacity="0.8"/>
<circle cx="298.5" cy="575.5" r="143.5" fill="#737994" fill-opacity="0.8"/>
<circle cx="298.5" cy="575.5" r="143.5" fill="#B6585A" fill-opacity="0.8"/>
<circle cx="239.5" cy="519.5" r="143.5" fill="#737994" fill-opacity="0.8"/>
<circle cx="239.5" cy="519.5" r="143.5" fill="#FFAFB1" fill-opacity="0.8"/>
<circle cx="75.5" cy="575.5" r="143.5" fill="#737994" fill-opacity="0.8"/>
<circle cx="75.5" cy="575.5" r="143.5" fill="#E78284" fill-opacity="0.8"/>
<circle cx="282.5" cy="387.5" r="143.5" fill="#737994" fill-opacity="0.8"/>
<circle cx="282.5" cy="387.5" r="143.5" fill="#E78284" fill-opacity="0.8"/>
<circle cx="11.5" cy="486.5" r="143.5" fill="#CD7072" fill-opacity="0.8"/>
<circle cx="185.5" cy="319.5" r="143.5" fill="#51576D" fill-opacity="0.8"/>
<circle cx="185.5" cy="319.5" r="143.5" fill="#CD7072" fill-opacity="0.8"/>
<circle cx="68.5" cy="406.5" r="143.5" fill="#FFAFB1" fill-opacity="0.8"/>
<circle cx="79.5" cy="305.5" r="143.5" fill="#B6585A" fill-opacity="0.8"/>
<circle cx="79.5" cy="305.5" r="143.5" fill="#B6585A" fill-opacity="0.8"/>
<circle cx="341.5" cy="57.5" r="143.5" fill="#737994" fill-opacity="0.8"/>
<circle cx="341.5" cy="57.5" r="143.5" fill="#B6585A" fill-opacity="0.8"/>
<circle cx="256.5" cy="232.5" r="143.5" fill="#737994" fill-opacity="0.8"/>
<circle cx="256.5" cy="232.5" r="143.5" fill="#B6585A" fill-opacity="0.8"/>
<circle cx="197.5" cy="176.5" r="143.5" fill="#737994" fill-opacity="0.8"/>
<circle cx="197.5" cy="176.5" r="143.5" fill="#FFAFB1" fill-opacity="0.8"/>
<circle cx="33.5" cy="232.5" r="143.5" fill="#737994" fill-opacity="0.8"/>
<circle cx="33.5" cy="232.5" r="143.5" fill="#E78284" fill-opacity="0.8"/>
<circle cx="240.5" cy="44.5" r="143.5" fill="#737994" fill-opacity="0.8"/>
<circle cx="240.5" cy="44.5" r="143.5" fill="#E78284" fill-opacity="0.8"/>
<circle cx="97.5" cy="89.5" r="143.5" fill="#CD7072" fill-opacity="0.8"/>
<circle cx="-30.5" cy="143.5" r="143.5" fill="#E78284" fill-opacity="0.8"/>
<circle cx="143.5" cy="-23.5" r="143.5" fill="#E78284" fill-opacity="0.8"/>
<circle cx="22.5" cy="0.5" r="143.5" fill="#B6585A" fill-opacity="0.8"/>
</svg>
