<svg width="82" height="60" viewBox="0 0 82 60" fill="none" xmlns="http://www.w3.org/2000/svg">
<path d="M41.0884 6.19369C40.819 8.91752 41.0068 -1.48631 28.2924 3.54911C15.5779 8.58454 18.8367 13.3736 18.8367 13.3736M41.0884 6.19369C41.3578 3.46986 53.5268 -1.52889 63.7293 11.6849C73.3189 14.6456 75.6584 17.7155 77.8166 24.6935M41.0884 6.19369C41.0884 6.19369 41.9544 18.0952 41.1083 22.1302C40.2622 26.1652 37.1578 29.9354 33.802 29.8353C30.4461 29.7352 23.677 30.2143 18.0547 41.9853M18.8367 13.3736L29.4255 16.0257M18.8367 13.3736C-3.83154 12.8747 -2.82619 45.8964 18.0547 41.9853M18.0547 41.9853C23.3755 47.7054 26.0718 48.3179 30.8202 48.8541M77.8166 24.6935C79.7808 29.679 79.8287 33.7545 77.8702 37.1737M77.8166 24.6935C65.752 25.3154 62.1022 26.7315 60.1504 32.8178M77.8702 37.1737L71.3943 37.1957M77.8702 37.1737C75.8047 43.9284 73.1805 47.1287 67.1307 49.6907M67.1307 49.6907C58.549 62.0083 43.8513 57.6421 42.3246 53.9992C40.7979 50.3562 33.3748 54.3164 30.8202 48.8541M67.1307 49.6907C53.7199 43.4 51.1809 39.7972 41.1859 40.1786C37.4335 40.7201 34.4618 41.4346 30.8202 48.8541M55.3428 19.2017C51.4705 22.287 51.4763 23.631 50.8444 27.2813" stroke="#FCFCFC" stroke-width="4" stroke-linecap="round"/>
<ellipse cx="3.66969" cy="3.2641" rx="3.66969" ry="3.2641" transform="matrix(0.999994 -0.00340111 0.00429886 0.999991 10.6736 22.8093)" fill="#FCFCFC"/>
</svg>
