<svg width="196" height="204" viewBox="0 0 196 204" fill="none" xmlns="http://www.w3.org/2000/svg">
<path d="M46.9751 180.074C48.0191 180.758 48.9011 181.568 49.6211 182.504C50.3771 183.404 50.9711 184.52 51.4031 185.852C51.8711 187.328 52.1051 188.822 52.1051 190.334C52.1411 191.81 51.8711 193.196 51.2951 194.492C50.7551 195.752 49.8731 196.868 48.6491 197.84C47.4611 198.776 45.8951 199.442 43.9511 199.838C42.9071 200.09 41.6831 200.288 40.2791 200.432C38.8751 200.576 37.6151 200.648 36.4991 200.648C35.0951 200.684 33.6371 200.684 32.1251 200.648C30.6491 200.648 29.2091 200.504 27.8051 200.216C27.1931 200.036 26.7431 199.73 26.4551 199.298C26.2031 198.83 26.0231 198.308 25.9151 197.732C25.7711 197.408 25.6991 197.084 25.6991 196.76V166.088C25.6991 165.08 25.8971 164.306 26.2931 163.766C26.7251 163.19 27.2831 162.776 27.9671 162.524C28.6511 162.236 29.4251 162.074 30.2891 162.038C31.1531 161.966 32.0531 161.93 32.9891 161.93C33.7091 161.93 34.4291 161.93 35.1491 161.93C35.9051 161.894 36.6611 161.894 37.4171 161.93C38.6051 161.966 39.8291 162.074 41.0891 162.254C42.3851 162.398 43.6091 162.686 44.7611 163.118C45.3011 163.298 45.8771 163.55 46.4891 163.874C47.1011 164.162 47.5871 164.522 47.9471 164.954C49.0991 165.998 49.9451 167.222 50.4851 168.626C51.0611 169.994 51.3131 171.398 51.2411 172.838C51.1691 174.242 50.7731 175.592 50.0531 176.888C49.3691 178.184 48.3431 179.246 46.9751 180.074ZM37.5251 194.384C38.6411 194.312 39.7751 194.186 40.9271 194.006C42.0791 193.826 42.8711 193.484 43.3031 192.98C43.7711 192.404 44.0951 191.738 44.2751 190.982C44.4911 190.19 44.5451 189.398 44.4371 188.606C44.3651 187.778 44.1311 187.004 43.7351 186.284C43.3751 185.528 42.8891 184.934 42.2771 184.502C41.4491 183.854 40.4951 183.44 39.4151 183.26C38.3351 183.044 37.2731 182.936 36.2291 182.936C35.7251 182.936 35.2571 182.954 34.8251 182.99C34.4291 182.99 34.0691 183.044 33.7451 183.152C33.4571 183.224 33.2411 183.386 33.0971 183.638C32.9531 183.89 32.8811 184.268 32.8811 184.772C32.9531 185.708 32.9531 186.644 32.8811 187.58C32.8091 188.516 32.7731 189.416 32.7731 190.28C32.7731 190.784 32.7551 191.342 32.7191 191.954C32.7191 192.53 32.9171 193.016 33.3131 193.412C33.7091 193.808 34.2851 194.078 35.0411 194.222C35.7971 194.366 36.6251 194.42 37.5251 194.384ZM38.6051 168.464C37.4891 168.428 36.5531 168.41 35.7971 168.41C35.0771 168.374 34.5011 168.428 34.0691 168.572C33.6731 168.68 33.3851 168.95 33.2051 169.382C33.0611 169.778 33.0071 170.39 33.0431 171.218C33.0431 171.902 33.0251 172.586 32.9891 173.27C32.9891 173.918 32.9891 174.566 32.9891 175.214C32.9891 175.934 33.2231 176.474 33.6911 176.834C34.1591 177.158 34.7351 177.356 35.4191 177.428C36.1391 177.5 36.8771 177.5 37.6331 177.428C38.4251 177.356 39.1091 177.266 39.6851 177.158C40.9811 176.942 41.9711 176.51 42.6551 175.862C43.3751 175.178 43.7891 174.188 43.8971 172.892C44.0411 171.272 43.6091 170.156 42.6011 169.544C41.6291 168.896 40.2971 168.536 38.6051 168.464ZM83.6217 197.624C83.6577 197.984 83.6217 198.326 83.5137 198.65C83.4417 198.866 83.3337 199.046 83.1897 199.19C83.0817 199.334 82.9377 199.478 82.7577 199.622C82.4337 199.838 82.0377 200.036 81.5697 200.216C81.2817 200.288 80.9937 200.342 80.7057 200.378C80.4537 200.45 80.1837 200.45 79.8957 200.378C79.3197 200.342 78.8157 200.126 78.3837 199.73C77.7717 199.226 77.2677 198.668 76.8717 198.056C76.6917 197.768 76.4937 197.444 76.2777 197.084C76.0617 196.724 75.8637 196.346 75.6837 195.95L69.6897 184.556C69.4017 184.556 69.1137 184.574 68.8257 184.61C68.5377 184.61 68.2497 184.628 67.9617 184.664C67.2057 184.736 66.4857 184.754 65.8017 184.718C65.1537 184.682 64.4697 184.682 63.7497 184.718H62.7237V194.492C62.7237 194.78 62.7057 195.05 62.6697 195.302C62.6697 195.554 62.6697 195.824 62.6697 196.112C62.6697 196.292 62.6517 196.526 62.6157 196.814C62.6157 197.102 62.5977 197.372 62.5617 197.624C62.4897 198.02 62.3277 198.434 62.0757 198.866C61.8237 199.262 61.4817 199.604 61.0497 199.892C60.2937 200.36 59.3757 200.486 58.2957 200.27C57.8277 200.162 57.3777 199.982 56.9457 199.73C56.8017 199.622 56.6757 199.496 56.5677 199.352C56.4597 199.172 56.3697 198.992 56.2977 198.812C56.2257 198.632 56.1537 198.452 56.0817 198.272C56.0457 198.056 55.9917 197.858 55.9197 197.678C55.8117 197.318 55.7577 196.976 55.7577 196.652V165.98C55.7577 165.764 55.7577 165.548 55.7577 165.332C55.7937 165.08 55.8297 164.864 55.8657 164.684C55.9017 164.288 56.0277 163.892 56.2437 163.496C56.3517 163.064 56.5317 162.758 56.7837 162.578C56.9997 162.362 57.3237 162.182 57.7557 162.038C58.2237 161.858 58.8897 161.786 59.7537 161.822C61.3737 161.858 62.9757 161.876 64.5597 161.876C66.1437 161.876 67.7277 161.912 69.3117 161.984C70.3557 162.056 71.4537 162.182 72.6057 162.362C73.7937 162.506 74.8917 162.776 75.8997 163.172C76.5477 163.424 77.1417 163.676 77.6817 163.928C78.3657 164.324 78.9057 164.702 79.3017 165.062C80.5617 166.214 81.5157 167.6 82.1637 169.22C82.8117 170.84 83.1357 172.478 83.1357 174.134C83.1357 176.078 82.6677 177.86 81.7317 179.48C80.8317 181.1 79.3737 182.306 77.3577 183.098C77.2857 183.17 77.1777 183.224 77.0337 183.26C76.9257 183.26 76.8357 183.278 76.7637 183.314L81.7317 193.304L82.2177 194.168C82.2897 194.312 82.3797 194.474 82.4877 194.654C82.5957 194.834 82.6857 195.014 82.7577 195.194C82.8657 195.374 82.9557 195.572 83.0277 195.788C83.1357 196.004 83.2437 196.202 83.3517 196.382C83.4597 196.886 83.5497 197.3 83.6217 197.624ZM70.1217 178.4C70.7697 178.4 71.3817 178.292 71.9577 178.076C72.5697 177.824 73.1097 177.5 73.5777 177.104C74.0817 176.708 74.4957 176.258 74.8197 175.754C75.1437 175.214 75.3237 174.638 75.3597 174.026C75.5037 172.226 75.0357 170.894 73.9557 170.03C72.8757 169.13 71.4537 168.644 69.6897 168.572C68.6457 168.5 67.4937 168.464 66.2337 168.464C65.0097 168.464 63.8397 168.464 62.7237 168.464C62.7597 169.94 62.7597 171.452 62.7237 173C62.7237 174.512 62.7237 176.312 62.7237 178.4H70.1217ZM121.296 196.328C121.332 196.544 121.35 196.76 121.35 196.976C121.386 197.156 121.404 197.372 121.404 197.624C121.404 198.056 121.278 198.452 121.026 198.812C120.918 198.992 120.774 199.172 120.594 199.352C120.414 199.496 120.198 199.622 119.946 199.73C119.046 200.234 118.092 200.414 117.084 200.27C116.58 200.126 116.13 199.892 115.734 199.568C115.662 199.496 115.608 199.46 115.572 199.46C115.536 199.424 115.5 199.37 115.464 199.298C115.428 199.262 115.392 199.226 115.356 199.19C115.32 199.118 115.266 199.064 115.194 199.028C115.014 198.848 114.87 198.686 114.762 198.542C114.654 198.362 114.546 198.182 114.438 198.002C114.366 197.822 114.276 197.66 114.168 197.516C114.096 197.336 114.006 197.156 113.898 196.976C113.826 196.832 113.754 196.706 113.682 196.598C113.61 196.454 113.556 196.31 113.52 196.166C113.376 195.842 113.286 195.554 113.25 195.302L112.116 192.656C109.632 192.656 107.148 192.674 104.664 192.71C102.216 192.71 99.7504 192.692 97.2664 192.656L96.1324 195.302C96.0604 195.446 96.0064 195.59 95.9704 195.734C95.9704 195.878 95.9344 196.022 95.8624 196.166C95.7904 196.31 95.7184 196.454 95.6464 196.598C95.6104 196.706 95.5564 196.832 95.4844 196.976C95.3764 197.156 95.2684 197.336 95.1604 197.516C95.0884 197.66 94.9984 197.822 94.8904 198.002C94.8184 198.182 94.7284 198.362 94.6204 198.542C94.5124 198.686 94.3684 198.848 94.1884 199.028C94.1164 199.064 94.0624 199.118 94.0264 199.19C93.9904 199.226 93.9544 199.262 93.9184 199.298C93.8824 199.37 93.8464 199.424 93.8104 199.46C93.7744 199.46 93.7204 199.496 93.6484 199.568C93.2524 199.892 92.8024 200.126 92.2984 200.27C91.2904 200.414 90.3364 200.234 89.4364 199.73C89.1844 199.622 88.9684 199.496 88.7884 199.352C88.6084 199.172 88.4644 198.992 88.3564 198.812C88.1044 198.452 87.9784 198.056 87.9784 197.624C87.9784 197.372 87.9784 197.156 87.9784 196.976C88.0144 196.76 88.0504 196.544 88.0864 196.328C88.1584 196.004 88.2484 195.68 88.3564 195.356C88.4644 195.032 88.5184 194.87 88.5184 194.87L99.7504 167.222L100.074 166.358C100.146 166.142 100.236 165.944 100.344 165.764C100.452 165.584 100.542 165.368 100.614 165.116C100.794 164.648 100.992 164.234 101.208 163.874C101.316 163.658 101.442 163.46 101.586 163.28C101.73 163.1 101.874 162.92 102.018 162.74C102.234 162.452 102.54 162.218 102.936 162.038C103.44 161.858 104.016 161.768 104.664 161.768C105.348 161.768 105.942 161.858 106.446 162.038C106.842 162.218 107.148 162.452 107.364 162.74C107.616 163.064 107.886 163.442 108.174 163.874C108.39 164.234 108.588 164.648 108.768 165.116C108.84 165.368 108.93 165.584 109.038 165.764C109.146 165.944 109.236 166.142 109.308 166.358L109.632 167.222L120.864 194.87C120.864 194.87 120.918 195.032 121.026 195.356C121.134 195.68 121.224 196.004 121.296 196.328ZM108.498 183.098C108.03 182.054 107.544 180.974 107.04 179.858C106.572 178.742 106.068 177.608 105.528 176.456C105.384 176.132 105.24 175.808 105.096 175.484C104.952 175.124 104.808 174.782 104.664 174.458C104.556 174.782 104.43 175.124 104.286 175.484C104.142 175.808 103.998 176.132 103.854 176.456C103.314 177.608 102.792 178.742 102.288 179.858C101.82 180.974 101.352 182.054 100.884 183.098L99.9124 185.474H109.47L108.498 183.098ZM127.41 194.276L127.464 190.01L127.518 182.072C127.554 180.92 127.572 179.732 127.572 178.508C127.572 177.284 127.572 176.024 127.572 174.728C127.572 173.432 127.572 172.28 127.572 171.272C127.572 170.264 127.608 169.13 127.68 167.87V167.654C127.716 167.294 127.734 166.934 127.734 166.574C127.77 166.178 127.788 165.782 127.788 165.386C127.824 164.738 128.022 164.036 128.382 163.28C128.634 162.776 129.012 162.344 129.516 161.984C130.092 161.696 130.65 161.552 131.19 161.552C131.478 161.552 131.73 161.57 131.946 161.606C132.198 161.606 132.432 161.624 132.648 161.66C133.116 161.732 133.53 161.948 133.89 162.308C134.106 162.488 134.304 162.776 134.484 163.172C134.556 163.388 134.61 163.604 134.646 163.82C134.718 164 134.772 164.198 134.808 164.414C134.844 164.666 134.862 164.9 134.862 165.116C134.898 165.332 134.916 165.548 134.916 165.764C134.916 166.016 134.898 166.25 134.862 166.466C134.862 166.646 134.862 166.844 134.862 167.06V167.978L134.538 196.004V196.544C134.538 196.652 134.52 196.796 134.484 196.976C134.484 197.12 134.466 197.3 134.43 197.516C134.358 197.696 134.286 197.894 134.214 198.11C134.178 198.29 134.124 198.488 134.052 198.704C133.944 198.884 133.818 199.064 133.674 199.244C133.566 199.388 133.422 199.532 133.242 199.676C132.954 199.964 132.486 200.162 131.838 200.27C130.866 200.486 129.948 200.396 129.084 200C128.652 199.712 128.346 199.352 128.166 198.92C128.058 198.812 128.004 198.704 128.004 198.596C127.968 198.524 127.932 198.47 127.896 198.434C127.86 198.398 127.824 198.344 127.788 198.272C127.716 198.092 127.662 197.912 127.626 197.732C127.59 197.516 127.572 197.3 127.572 197.084C127.536 196.904 127.5 196.724 127.464 196.544C127.464 196.364 127.446 196.184 127.41 196.004C127.374 195.716 127.374 195.41 127.41 195.086V194.276ZM170.247 195.896C170.211 196.508 170.121 197.156 169.977 197.84C169.869 198.524 169.527 199.082 168.951 199.514C168.519 199.874 168.033 200.09 167.493 200.162C166.953 200.234 166.413 200.198 165.873 200.054C165.369 199.946 164.883 199.766 164.415 199.514C163.947 199.226 163.569 198.884 163.281 198.488C162.057 196.976 160.923 195.428 159.879 193.844C158.871 192.224 157.845 190.604 156.801 188.984L152.265 182.126C151.653 181.154 151.005 180.074 150.321 178.886C149.637 177.662 148.935 176.528 148.215 175.484L148.053 196.112V196.598C148.053 197.174 147.945 197.75 147.729 198.326C147.549 198.866 147.225 199.334 146.757 199.73C146.397 200.018 145.929 200.216 145.353 200.324C144.453 200.504 143.697 200.45 143.085 200.162C142.509 199.874 142.041 199.478 141.681 198.974C141.357 198.47 141.123 197.894 140.979 197.246C140.871 196.562 140.853 195.896 140.925 195.248V194.33L141.033 190.118L141.087 182.288C141.123 181.136 141.141 179.966 141.141 178.778C141.141 177.554 141.141 176.312 141.141 175.052C141.105 173.504 141.105 171.866 141.141 170.138C141.213 168.41 141.285 166.79 141.357 165.278C141.429 164.45 141.627 163.748 141.951 163.172C142.095 162.668 142.473 162.236 143.085 161.876C143.481 161.624 143.985 161.462 144.597 161.39C145.245 161.318 145.803 161.336 146.271 161.444C146.451 161.516 146.631 161.606 146.811 161.714C146.991 161.786 147.171 161.876 147.351 161.984C147.531 162.128 147.693 162.272 147.837 162.416C148.017 162.56 148.179 162.722 148.323 162.902C148.503 163.082 148.665 163.28 148.809 163.496C148.953 163.676 149.097 163.856 149.241 164.036C149.349 164.252 149.457 164.45 149.565 164.63C149.673 164.81 149.799 164.99 149.943 165.17L150.537 166.034L163.011 185.69V182.126C163.011 180.974 162.993 179.804 162.957 178.616C162.957 177.392 162.939 176.132 162.903 174.836C162.903 173.324 162.903 171.704 162.903 169.976C162.939 168.248 162.993 166.628 163.065 165.116C163.065 164.504 163.245 163.802 163.605 163.01C163.785 162.542 164.091 162.164 164.523 161.876C164.955 161.588 165.441 161.39 165.981 161.282C166.521 161.174 167.061 161.174 167.601 161.282C168.141 161.39 168.609 161.606 169.005 161.93C169.113 162.038 169.221 162.164 169.329 162.308C169.437 162.452 169.527 162.614 169.599 162.794C169.779 163.262 169.887 163.676 169.923 164.036C170.031 164.54 170.085 164.99 170.085 165.386C170.085 169.886 170.085 174.476 170.085 179.156C170.121 183.836 170.157 188.426 170.193 192.926C170.193 193.43 170.211 193.934 170.247 194.438C170.283 194.906 170.283 195.392 170.247 195.896Z" fill="white"/>
<path d="M92.9274 14.8957C92.3811 20.8556 92.8328 -1.91492 68.083 9.01198C43.3331 19.9389 49.6257 30.4456 49.6257 30.4456M92.9274 14.8957C93.4736 8.93578 117.163 -1.91491 136.879 27.0834C155.49 33.6352 160.011 40.3719 164.146 55.6615M92.9274 14.8957C92.9274 14.8957 94.5109 40.9521 92.8329 49.7777C91.1549 58.6033 85.0907 66.8324 78.5701 66.5883C72.0496 66.3442 58.8912 67.3425 47.8671 93.0649M49.6257 30.4456L70.1807 36.3292M49.6257 30.4456C5.57896 29.1848 7.25678 101.47 47.8671 93.0649M47.8671 93.0649C58.1592 105.625 63.3939 106.985 72.6168 108.195M164.146 55.6615C167.922 66.5884 167.981 75.5092 164.146 82.9786M164.146 55.6615C140.696 56.9329 133.592 60.0054 129.748 73.3125M164.146 82.9786H151.561M164.146 82.9786C160.076 97.7479 154.95 104.733 143.172 110.296M143.172 110.296C126.392 137.193 97.8667 127.527 94.9303 119.542C91.9938 111.557 77.5354 120.169 72.6168 108.195M143.172 110.296C117.163 96.4271 112.259 88.5222 92.8329 89.2826C85.5364 90.4399 79.7555 91.9818 72.6168 108.195M120.519 43.4737C112.968 50.198 112.968 53.1398 111.71 61.1249" stroke="#FCFCFC" stroke-width="11" stroke-linecap="round"/>
</svg>
