<svg width="390" height="349" viewBox="0 0 390 349" fill="none" xmlns="http://www.w3.org/2000/svg">
<ellipse cx="233.613" cy="154.519" rx="87.874" ry="81.2996" transform="rotate(-98.0149 233.613 154.519)" fill="#737994" fill-opacity="0.8"/>
<ellipse cx="233.613" cy="154.519" rx="87.874" ry="81.2996" transform="rotate(-98.0149 233.613 154.519)" fill="#B6585A" fill-opacity="0.8"/>
<ellipse cx="207.233" cy="194.719" rx="87.874" ry="81.2996" transform="rotate(-98.0149 207.233 194.719)" fill="#737994" fill-opacity="0.8"/>
<ellipse cx="207.233" cy="194.719" rx="87.874" ry="81.2996" transform="rotate(-98.0149 207.233 194.719)" fill="#FFAFB1" fill-opacity="0.8"/>
<ellipse cx="252.653" cy="289.741" rx="87.874" ry="81.2996" transform="rotate(-98.0149 252.653 289.741)" fill="#737994" fill-opacity="0.8"/>
<ellipse cx="252.653" cy="289.741" rx="87.874" ry="81.2996" transform="rotate(-98.0149 252.653 289.741)" fill="#E78284" fill-opacity="0.8"/>
<ellipse cx="129.508" cy="179.072" rx="87.874" ry="81.2996" transform="rotate(-98.0149 129.508 179.072)" fill="#737994" fill-opacity="0.8"/>
<ellipse cx="129.508" cy="179.072" rx="87.874" ry="81.2996" transform="rotate(-98.0149 129.508 179.072)" fill="#E78284" fill-opacity="0.8"/>
<ellipse cx="208.187" cy="335.581" rx="87.874" ry="81.2996" transform="rotate(-98.0149 208.187 335.581)" fill="#CD7072" fill-opacity="0.8"/>
<ellipse cx="130.461" cy="263.04" rx="87.874" ry="81.2996" transform="rotate(-98.0149 130.461 263.04)" fill="#FFAFB1" fill-opacity="0.8"/>
<ellipse cx="58.4321" cy="304.103" rx="87.874" ry="81.2996" transform="rotate(-98.0149 58.4321 304.103)" fill="#737994" fill-opacity="0.8"/>
<ellipse cx="58.4321" cy="304.103" rx="87.874" ry="81.2996" transform="rotate(-98.0149 58.4321 304.103)" fill="#737994" fill-opacity="0.8"/>
<ellipse cx="100.141" cy="226.495" rx="87.874" ry="81.2996" transform="rotate(-98.0149 100.141 226.495)" fill="#B6585A" fill-opacity="0.8"/>
<ellipse cx="100.141" cy="226.495" rx="87.874" ry="81.2996" transform="rotate(-98.0149 100.141 226.495)" fill="#B6585A" fill-opacity="0.8"/>
<ellipse cx="44.0744" cy="124.932" rx="87.874" ry="81.2996" transform="rotate(-98.0149 44.0744 124.932)" fill="#737994" fill-opacity="0.8"/>
<ellipse cx="44.0744" cy="124.932" rx="87.874" ry="81.2996" transform="rotate(-98.0149 44.0744 124.932)" fill="#B6585A" fill-opacity="0.8"/>
<ellipse cx="17.6949" cy="165.132" rx="87.874" ry="81.2996" transform="rotate(-98.0149 17.6949 165.132)" fill="#737994" fill-opacity="0.8"/>
<ellipse cx="17.6949" cy="165.132" rx="87.874" ry="81.2996" transform="rotate(-98.0149 17.6949 165.132)" fill="#FFAFB1" fill-opacity="0.8"/>
<ellipse cx="63.1144" cy="260.155" rx="87.874" ry="81.2996" transform="rotate(-98.0149 63.1144 260.155)" fill="#737994" fill-opacity="0.8"/>
<ellipse cx="63.1144" cy="260.155" rx="87.874" ry="81.2996" transform="rotate(-98.0149 63.1144 260.155)" fill="#E78284" fill-opacity="0.8"/>
<ellipse cx="-60.0302" cy="149.485" rx="87.874" ry="81.2996" transform="rotate(-98.0149 -60.0302 149.485)" fill="#737994" fill-opacity="0.8"/>
<ellipse cx="-60.0302" cy="149.485" rx="87.874" ry="81.2996" transform="rotate(-98.0149 -60.0302 149.485)" fill="#E78284" fill-opacity="0.8"/>
<ellipse cx="18.6487" cy="305.994" rx="87.874" ry="81.2996" transform="rotate(-98.0149 18.6487 305.994)" fill="#CD7072" fill-opacity="0.8"/>
<ellipse cx="-89.8973" cy="213.676" rx="87.874" ry="81.2996" transform="rotate(-98.0149 -89.8973 213.676)" fill="#CD7072" fill-opacity="0.8"/>
<ellipse cx="-66.1015" cy="285.151" rx="87.874" ry="81.2996" transform="rotate(-98.0149 -66.1015 285.151)" fill="#B6585A" fill-opacity="0.8"/>
<ellipse cx="123.657" cy="340.68" rx="87.874" ry="81.2996" transform="rotate(-98.0149 123.657 340.68)" fill="#737994" fill-opacity="0.8"/>
<ellipse cx="123.657" cy="340.68" rx="87.874" ry="81.2996" transform="rotate(-98.0149 123.657 340.68)" fill="#B6585A" fill-opacity="0.8"/>
<ellipse cx="229.091" cy="378.399" rx="87.874" ry="81.2996" transform="rotate(-98.0149 229.091 378.399)" fill="#737994" fill-opacity="0.8"/>
<ellipse cx="229.091" cy="378.399" rx="87.874" ry="81.2996" transform="rotate(-98.0149 229.091 378.399)" fill="#B6585A" fill-opacity="0.8"/>
<ellipse cx="202.712" cy="418.599" rx="87.874" ry="81.2996" transform="rotate(-98.0149 202.712 418.599)" fill="#737994" fill-opacity="0.8"/>
<ellipse cx="202.712" cy="418.599" rx="87.874" ry="81.2996" transform="rotate(-98.0149 202.712 418.599)" fill="#FFAFB1" fill-opacity="0.8"/>
<ellipse cx="124.987" cy="402.952" rx="87.874" ry="81.2996" transform="rotate(-98.0149 124.987 402.952)" fill="#CD7072" fill-opacity="0.8"/>
<ellipse cx="124.987" cy="402.952" rx="87.874" ry="81.2996" transform="rotate(-98.0149 124.987 402.952)" fill="#CD7072" fill-opacity="0.8"/>
<ellipse cx="-22.0734" cy="329.662" rx="87.874" ry="81.2996" transform="rotate(-98.0149 -22.0734 329.662)" fill="#FFAFB1" fill-opacity="0.8"/>
<ellipse cx="-70.5637" cy="355.041" rx="87.874" ry="81.2996" transform="rotate(-98.0149 -70.5637 355.041)" fill="#737994" fill-opacity="0.8"/>
<ellipse cx="-70.5637" cy="355.041" rx="87.874" ry="81.2996" transform="rotate(-98.0149 -70.5637 355.041)" fill="#B6585A" fill-opacity="0.8"/>
<ellipse cx="34.8708" cy="392.76" rx="87.874" ry="81.2996" transform="rotate(-98.0149 34.8708 392.76)" fill="#737994" fill-opacity="0.8"/>
<ellipse cx="34.8708" cy="392.76" rx="87.874" ry="81.2996" transform="rotate(-98.0149 34.8708 392.76)" fill="#B6585A" fill-opacity="0.8"/>
<ellipse cx="8.49187" cy="432.96" rx="87.874" ry="81.2996" transform="rotate(-98.0149 8.49187 432.96)" fill="#737994" fill-opacity="0.8"/>
<ellipse cx="8.49187" cy="432.96" rx="87.874" ry="81.2996" transform="rotate(-98.0149 8.49187 432.96)" fill="#FFAFB1" fill-opacity="0.8"/>
<ellipse cx="-69.2337" cy="417.313" rx="87.874" ry="81.2996" transform="rotate(-98.0149 -69.2337 417.313)" fill="#737994" fill-opacity="0.8"/>
<ellipse cx="-69.2337" cy="417.313" rx="87.874" ry="81.2996" transform="rotate(-98.0149 -69.2337 417.313)" fill="#E78284" fill-opacity="0.8"/>
</svg>
