<svg width="417" height="860" viewBox="0 0 417 860" fill="none" xmlns="http://www.w3.org/2000/svg">
<ellipse cx="467.731" cy="328.406" rx="110.235" ry="101.987" transform="rotate(-138.985 467.731 328.406)" fill="#737994" fill-opacity="0.8"/>
<ellipse cx="467.731" cy="328.406" rx="110.235" ry="101.987" transform="rotate(-138.985 467.731 328.406)" fill="#B6585A" fill-opacity="0.8"/>
<ellipse cx="475.81" cy="388.18" rx="110.235" ry="101.987" transform="rotate(-138.985 475.81 388.18)" fill="#737994" fill-opacity="0.8"/>
<ellipse cx="475.81" cy="388.18" rx="110.235" ry="101.987" transform="rotate(-138.985 475.81 388.18)" fill="#FFAFB1" fill-opacity="0.8"/>
<ellipse cx="389.32" cy="437.288" rx="110.235" ry="101.987" transform="rotate(-138.985 389.32 437.288)" fill="#737994" fill-opacity="0.8"/>
<ellipse cx="389.32" cy="437.288" rx="110.235" ry="101.987" transform="rotate(-138.985 389.32 437.288)" fill="#E78284" fill-opacity="0.8"/>
<ellipse cx="413.827" cy="522.654" rx="110.235" ry="101.987" transform="rotate(-138.985 413.827 522.654)" fill="#CD7072" fill-opacity="0.8"/>
<ellipse cx="495.156" cy="570.784" rx="110.235" ry="101.987" transform="rotate(-138.985 495.156 570.784)" fill="#B6585A" fill-opacity="0.8"/>
<ellipse cx="251.467" cy="646.12" rx="110.235" ry="101.987" transform="rotate(-138.985 251.467 646.12)" fill="#737994" fill-opacity="0.8"/>
<ellipse cx="251.467" cy="646.12" rx="110.235" ry="101.987" transform="rotate(-138.985 251.467 646.12)" fill="#B6585A" fill-opacity="0.8"/>
<ellipse cx="382.356" cy="595.125" rx="110.235" ry="101.987" transform="rotate(-138.985 382.356 595.125)" fill="#737994" fill-opacity="0.8"/>
<ellipse cx="382.356" cy="595.125" rx="110.235" ry="101.987" transform="rotate(-138.985 382.356 595.125)" fill="#B6585A" fill-opacity="0.8"/>
<ellipse cx="390.435" cy="654.9" rx="110.235" ry="101.987" transform="rotate(-138.985 390.435 654.9)" fill="#737994" fill-opacity="0.8"/>
<ellipse cx="390.435" cy="654.9" rx="110.235" ry="101.987" transform="rotate(-138.985 390.435 654.9)" fill="#FFAFB1" fill-opacity="0.8"/>
<ellipse cx="511.613" cy="707.546" rx="110.235" ry="101.987" transform="rotate(-138.985 511.613 707.546)" fill="#737994" fill-opacity="0.8"/>
<ellipse cx="511.613" cy="707.546" rx="110.235" ry="101.987" transform="rotate(-138.985 511.613 707.546)" fill="#E78284" fill-opacity="0.8"/>
<ellipse cx="303.946" cy="704.008" rx="110.235" ry="101.987" transform="rotate(-138.985 303.946 704.008)" fill="#737994" fill-opacity="0.8"/>
<ellipse cx="303.946" cy="704.008" rx="110.235" ry="101.987" transform="rotate(-138.985 303.946 704.008)" fill="#E78284" fill-opacity="0.8"/>
<ellipse cx="507.199" cy="787.537" rx="110.235" ry="101.987" transform="rotate(-138.985 507.199 787.537)" fill="#CD7072" fill-opacity="0.8"/>
<ellipse cx="328.453" cy="789.375" rx="110.235" ry="101.987" transform="rotate(-138.985 328.453 789.375)" fill="#CD7072" fill-opacity="0.8"/>
<ellipse cx="436.847" cy="801.702" rx="110.235" ry="101.987" transform="rotate(-138.985 436.847 801.702)" fill="#FFAFB1" fill-opacity="0.8"/>
<ellipse cx="548.414" cy="640.652" rx="110.235" ry="101.987" transform="rotate(-138.985 548.414 640.652)" fill="#737994" fill-opacity="0.8"/>
<ellipse cx="548.414" cy="640.652" rx="110.235" ry="101.987" transform="rotate(-138.985 548.414 640.652)" fill="#B6585A" fill-opacity="0.8"/>
<ellipse cx="412.78" cy="845.762" rx="110.235" ry="101.987" transform="rotate(-138.985 412.78 845.762)" fill="#737994" fill-opacity="0.8"/>
<ellipse cx="412.78" cy="845.762" rx="110.235" ry="101.987" transform="rotate(-138.985 412.78 845.762)" fill="#B6585A" fill-opacity="0.8"/>
<ellipse cx="543.669" cy="794.769" rx="110.235" ry="101.987" transform="rotate(-138.985 543.669 794.769)" fill="#737994" fill-opacity="0.8"/>
<ellipse cx="543.669" cy="794.769" rx="110.235" ry="101.987" transform="rotate(-138.985 543.669 794.769)" fill="#B6585A" fill-opacity="0.8"/>
<ellipse cx="551.749" cy="854.542" rx="110.235" ry="101.987" transform="rotate(-138.985 551.749 854.542)" fill="#737994" fill-opacity="0.8"/>
<ellipse cx="551.749" cy="854.542" rx="110.235" ry="101.987" transform="rotate(-138.985 551.749 854.542)" fill="#FFAFB1" fill-opacity="0.8"/>
<ellipse cx="465.259" cy="903.65" rx="110.235" ry="101.987" transform="rotate(-138.985 465.259 903.65)" fill="#737994" fill-opacity="0.8"/>
<ellipse cx="465.259" cy="903.65" rx="110.235" ry="101.987" transform="rotate(-138.985 465.259 903.65)" fill="#E78284" fill-opacity="0.8"/>
<ellipse cx="489.766" cy="989.017" rx="110.235" ry="101.987" transform="rotate(-138.985 489.766 989.017)" fill="#E78284" fill-opacity="0.8"/>
</svg>
