<svg width="251" height="258" viewBox="0 0 251 258" fill="none" xmlns="http://www.w3.org/2000/svg">
<path d="M87.7038 214.24C88.4771 214.747 89.1304 215.347 89.6638 216.04C90.2238 216.707 90.6638 217.533 90.9838 218.52C91.3304 219.613 91.5038 220.72 91.5038 221.84C91.5304 222.933 91.3304 223.96 90.9037 224.92C90.5038 225.853 89.8504 226.68 88.9438 227.4C88.0638 228.093 86.9038 228.587 85.4638 228.88C84.6904 229.067 83.7838 229.213 82.7438 229.32C81.7038 229.427 80.7704 229.48 79.9438 229.48C78.9038 229.507 77.8238 229.507 76.7038 229.48C75.6104 229.48 74.5438 229.373 73.5038 229.16C73.0504 229.027 72.7171 228.8 72.5038 228.48C72.3171 228.133 72.1838 227.747 72.1038 227.32C71.9971 227.08 71.9438 226.84 71.9438 226.6V203.88C71.9438 203.133 72.0904 202.56 72.3838 202.16C72.7038 201.733 73.1171 201.427 73.6238 201.24C74.1304 201.027 74.7038 200.907 75.3438 200.88C75.9838 200.827 76.6504 200.8 77.3438 200.8C77.8771 200.8 78.4104 200.8 78.9438 200.8C79.5038 200.773 80.0638 200.773 80.6237 200.8C81.5038 200.827 82.4104 200.907 83.3438 201.04C84.3038 201.147 85.2104 201.36 86.0638 201.68C86.4638 201.813 86.8904 202 87.3438 202.24C87.7971 202.453 88.1571 202.72 88.4238 203.04C89.2771 203.813 89.9038 204.72 90.3038 205.76C90.7304 206.773 90.9171 207.813 90.8638 208.88C90.8104 209.92 90.5171 210.92 89.9838 211.88C89.4771 212.84 88.7171 213.627 87.7038 214.24ZM80.7038 224.84C81.5304 224.787 82.3704 224.693 83.2238 224.56C84.0771 224.427 84.6638 224.173 84.9838 223.8C85.3304 223.373 85.5704 222.88 85.7038 222.32C85.8638 221.733 85.9038 221.147 85.8238 220.56C85.7704 219.947 85.5971 219.373 85.3038 218.84C85.0371 218.28 84.6771 217.84 84.2238 217.52C83.6104 217.04 82.9038 216.733 82.1037 216.6C81.3037 216.44 80.5171 216.36 79.7438 216.36C79.3704 216.36 79.0238 216.373 78.7038 216.4C78.4104 216.4 78.1438 216.44 77.9038 216.52C77.6904 216.573 77.5304 216.693 77.4238 216.88C77.3171 217.067 77.2638 217.347 77.2638 217.72C77.3171 218.413 77.3171 219.107 77.2638 219.8C77.2104 220.493 77.1838 221.16 77.1838 221.8C77.1838 222.173 77.1704 222.587 77.1438 223.04C77.1438 223.467 77.2904 223.827 77.5838 224.12C77.8771 224.413 78.3038 224.613 78.8638 224.72C79.4238 224.827 80.0371 224.867 80.7038 224.84ZM81.5038 205.64C80.6771 205.613 79.9838 205.6 79.4238 205.6C78.8904 205.573 78.4638 205.613 78.1438 205.72C77.8504 205.8 77.6371 206 77.5038 206.32C77.3971 206.613 77.3571 207.067 77.3838 207.68C77.3838 208.187 77.3704 208.693 77.3438 209.2C77.3438 209.68 77.3438 210.16 77.3438 210.64C77.3438 211.173 77.5171 211.573 77.8638 211.84C78.2104 212.08 78.6371 212.227 79.1438 212.28C79.6771 212.333 80.2238 212.333 80.7838 212.28C81.3704 212.227 81.8771 212.16 82.3038 212.08C83.2638 211.92 83.9971 211.6 84.5038 211.12C85.0371 210.613 85.3438 209.88 85.4238 208.92C85.5304 207.72 85.2104 206.893 84.4638 206.44C83.7438 205.96 82.7571 205.693 81.5038 205.64ZM114.849 227.24C114.876 227.507 114.849 227.76 114.769 228C114.716 228.16 114.636 228.293 114.529 228.4C114.449 228.507 114.343 228.613 114.209 228.72C113.969 228.88 113.676 229.027 113.329 229.16C113.116 229.213 112.903 229.253 112.689 229.28C112.503 229.333 112.303 229.333 112.089 229.28C111.663 229.253 111.289 229.093 110.969 228.8C110.516 228.427 110.143 228.013 109.849 227.56C109.716 227.347 109.569 227.107 109.409 226.84C109.249 226.573 109.103 226.293 108.969 226L104.529 217.56C104.316 217.56 104.103 217.573 103.889 217.6C103.676 217.6 103.463 217.613 103.249 217.64C102.689 217.693 102.156 217.707 101.649 217.68C101.169 217.653 100.663 217.653 100.129 217.68H99.3694V224.92C99.3694 225.133 99.356 225.333 99.3294 225.52C99.3294 225.707 99.3294 225.907 99.3294 226.12C99.3294 226.253 99.316 226.427 99.2894 226.64C99.2894 226.853 99.276 227.053 99.2494 227.24C99.196 227.533 99.076 227.84 98.8894 228.16C98.7027 228.453 98.4494 228.707 98.1294 228.92C97.5694 229.267 96.8894 229.36 96.0894 229.2C95.7427 229.12 95.4094 228.987 95.0894 228.8C94.9827 228.72 94.8894 228.627 94.8094 228.52C94.7294 228.387 94.6627 228.253 94.6094 228.12C94.556 227.987 94.5027 227.853 94.4494 227.72C94.4227 227.56 94.3827 227.413 94.3294 227.28C94.2494 227.013 94.2094 226.76 94.2094 226.52V203.8C94.2094 203.64 94.2094 203.48 94.2094 203.32C94.236 203.133 94.2627 202.973 94.2894 202.84C94.316 202.547 94.4094 202.253 94.5694 201.96C94.6494 201.64 94.7827 201.413 94.9694 201.28C95.1294 201.12 95.3694 200.987 95.6894 200.88C96.036 200.747 96.5294 200.693 97.1694 200.72C98.3694 200.747 99.556 200.76 100.729 200.76C101.903 200.76 103.076 200.787 104.249 200.84C105.023 200.893 105.836 200.987 106.689 201.12C107.569 201.227 108.383 201.427 109.129 201.72C109.609 201.907 110.049 202.093 110.449 202.28C110.956 202.573 111.356 202.853 111.649 203.12C112.583 203.973 113.289 205 113.769 206.2C114.249 207.4 114.489 208.613 114.489 209.84C114.489 211.28 114.143 212.6 113.449 213.8C112.783 215 111.703 215.893 110.209 216.48C110.156 216.533 110.076 216.573 109.969 216.6C109.889 216.6 109.823 216.613 109.769 216.64L113.449 224.04L113.809 224.68C113.863 224.787 113.929 224.907 114.009 225.04C114.089 225.173 114.156 225.307 114.209 225.44C114.289 225.573 114.356 225.72 114.409 225.88C114.489 226.04 114.569 226.187 114.649 226.32C114.729 226.693 114.796 227 114.849 227.24ZM104.849 213C105.329 213 105.783 212.92 106.209 212.76C106.663 212.573 107.063 212.333 107.409 212.04C107.783 211.747 108.089 211.413 108.329 211.04C108.569 210.64 108.703 210.213 108.729 209.76C108.836 208.427 108.489 207.44 107.689 206.8C106.889 206.133 105.836 205.773 104.529 205.72C103.756 205.667 102.903 205.64 101.969 205.64C101.063 205.64 100.196 205.64 99.3694 205.64C99.396 206.733 99.396 207.853 99.3694 209C99.3694 210.12 99.3694 211.453 99.3694 213H104.849ZM142.757 226.28C142.783 226.44 142.797 226.6 142.797 226.76C142.823 226.893 142.837 227.053 142.837 227.24C142.837 227.56 142.743 227.853 142.557 228.12C142.477 228.253 142.37 228.387 142.237 228.52C142.103 228.627 141.943 228.72 141.757 228.8C141.09 229.173 140.383 229.307 139.637 229.2C139.263 229.093 138.93 228.92 138.637 228.68C138.583 228.627 138.543 228.6 138.517 228.6C138.49 228.573 138.463 228.533 138.437 228.48C138.41 228.453 138.383 228.427 138.357 228.4C138.33 228.347 138.29 228.307 138.237 228.28C138.103 228.147 137.997 228.027 137.917 227.92C137.837 227.787 137.757 227.653 137.677 227.52C137.623 227.387 137.557 227.267 137.477 227.16C137.423 227.027 137.357 226.893 137.277 226.76C137.223 226.653 137.17 226.56 137.117 226.48C137.063 226.373 137.023 226.267 136.997 226.16C136.89 225.92 136.823 225.707 136.797 225.52L135.957 223.56C134.117 223.56 132.277 223.573 130.437 223.6C128.623 223.6 126.797 223.587 124.957 223.56L124.117 225.52C124.063 225.627 124.023 225.733 123.997 225.84C123.997 225.947 123.97 226.053 123.917 226.16C123.863 226.267 123.81 226.373 123.757 226.48C123.73 226.56 123.69 226.653 123.637 226.76C123.557 226.893 123.477 227.027 123.397 227.16C123.343 227.267 123.277 227.387 123.197 227.52C123.143 227.653 123.077 227.787 122.997 227.92C122.917 228.027 122.81 228.147 122.677 228.28C122.623 228.307 122.583 228.347 122.557 228.4C122.53 228.427 122.503 228.453 122.477 228.48C122.45 228.533 122.423 228.573 122.397 228.6C122.37 228.6 122.33 228.627 122.277 228.68C121.983 228.92 121.65 229.093 121.277 229.2C120.53 229.307 119.823 229.173 119.157 228.8C118.97 228.72 118.81 228.627 118.677 228.52C118.543 228.387 118.437 228.253 118.357 228.12C118.17 227.853 118.077 227.56 118.077 227.24C118.077 227.053 118.077 226.893 118.077 226.76C118.103 226.6 118.13 226.44 118.157 226.28C118.21 226.04 118.277 225.8 118.357 225.56C118.437 225.32 118.477 225.2 118.477 225.2L126.797 204.72L127.037 204.08C127.09 203.92 127.157 203.773 127.237 203.64C127.317 203.507 127.383 203.347 127.437 203.16C127.57 202.813 127.717 202.507 127.877 202.24C127.957 202.08 128.05 201.933 128.157 201.8C128.263 201.667 128.37 201.533 128.477 201.4C128.637 201.187 128.863 201.013 129.157 200.88C129.53 200.747 129.957 200.68 130.437 200.68C130.943 200.68 131.383 200.747 131.757 200.88C132.05 201.013 132.277 201.187 132.437 201.4C132.623 201.64 132.823 201.92 133.037 202.24C133.197 202.507 133.343 202.813 133.477 203.16C133.53 203.347 133.597 203.507 133.677 203.64C133.757 203.773 133.823 203.92 133.877 204.08L134.117 204.72L142.437 225.2C142.437 225.2 142.477 225.32 142.557 225.56C142.637 225.8 142.703 226.04 142.757 226.28ZM133.277 216.48C132.93 215.707 132.57 214.907 132.197 214.08C131.85 213.253 131.477 212.413 131.077 211.56C130.97 211.32 130.863 211.08 130.757 210.84C130.65 210.573 130.543 210.32 130.437 210.08C130.357 210.32 130.263 210.573 130.157 210.84C130.05 211.08 129.943 211.32 129.837 211.56C129.437 212.413 129.05 213.253 128.677 214.08C128.33 214.907 127.983 215.707 127.637 216.48L126.917 218.24H133.997L133.277 216.48ZM147.285 224.76L147.325 221.6L147.365 215.72C147.392 214.867 147.405 213.987 147.405 213.08C147.405 212.173 147.405 211.24 147.405 210.28C147.405 209.32 147.405 208.467 147.405 207.72C147.405 206.973 147.432 206.133 147.485 205.2V205.04C147.512 204.773 147.525 204.507 147.525 204.24C147.552 203.947 147.565 203.653 147.565 203.36C147.592 202.88 147.739 202.36 148.005 201.8C148.192 201.427 148.472 201.107 148.845 200.84C149.272 200.627 149.685 200.52 150.085 200.52C150.299 200.52 150.485 200.533 150.645 200.56C150.832 200.56 151.005 200.573 151.165 200.6C151.512 200.653 151.819 200.813 152.085 201.08C152.245 201.213 152.392 201.427 152.525 201.72C152.579 201.88 152.619 202.04 152.645 202.2C152.699 202.333 152.739 202.48 152.765 202.64C152.792 202.827 152.805 203 152.805 203.16C152.832 203.32 152.845 203.48 152.845 203.64C152.845 203.827 152.832 204 152.805 204.16C152.805 204.293 152.805 204.44 152.805 204.6V205.28L152.565 226.04V226.44C152.565 226.52 152.552 226.627 152.525 226.76C152.525 226.867 152.512 227 152.485 227.16C152.432 227.293 152.379 227.44 152.325 227.6C152.299 227.733 152.259 227.88 152.205 228.04C152.125 228.173 152.032 228.307 151.925 228.44C151.845 228.547 151.739 228.653 151.605 228.76C151.392 228.973 151.045 229.12 150.565 229.2C149.845 229.36 149.165 229.293 148.525 229C148.205 228.787 147.979 228.52 147.845 228.2C147.765 228.12 147.725 228.04 147.725 227.96C147.699 227.907 147.672 227.867 147.645 227.84C147.619 227.813 147.592 227.773 147.565 227.72C147.512 227.587 147.472 227.453 147.445 227.32C147.419 227.16 147.405 227 147.405 226.84C147.379 226.707 147.352 226.573 147.325 226.44C147.325 226.307 147.312 226.173 147.285 226.04C147.259 225.827 147.259 225.6 147.285 225.36V224.76ZM179.016 225.96C178.99 226.413 178.923 226.893 178.816 227.4C178.736 227.907 178.483 228.32 178.056 228.64C177.736 228.907 177.376 229.067 176.976 229.12C176.576 229.173 176.176 229.147 175.776 229.04C175.403 228.96 175.043 228.827 174.696 228.64C174.35 228.427 174.07 228.173 173.856 227.88C172.95 226.76 172.11 225.613 171.336 224.44C170.59 223.24 169.83 222.04 169.056 220.84L165.696 215.76C165.243 215.04 164.763 214.24 164.256 213.36C163.75 212.453 163.23 211.613 162.696 210.84L162.576 226.12V226.48C162.576 226.907 162.496 227.333 162.336 227.76C162.203 228.16 161.963 228.507 161.616 228.8C161.35 229.013 161.003 229.16 160.576 229.24C159.91 229.373 159.35 229.333 158.896 229.12C158.47 228.907 158.123 228.613 157.856 228.24C157.616 227.867 157.443 227.44 157.336 226.96C157.256 226.453 157.243 225.96 157.296 225.48V224.8L157.376 221.68L157.416 215.88C157.443 215.027 157.456 214.16 157.456 213.28C157.456 212.373 157.456 211.453 157.456 210.52C157.43 209.373 157.43 208.16 157.456 206.88C157.51 205.6 157.563 204.4 157.616 203.28C157.67 202.667 157.816 202.147 158.056 201.72C158.163 201.347 158.443 201.027 158.896 200.76C159.19 200.573 159.563 200.453 160.016 200.4C160.496 200.347 160.91 200.36 161.256 200.44C161.39 200.493 161.523 200.56 161.656 200.64C161.79 200.693 161.923 200.76 162.056 200.84C162.19 200.947 162.31 201.053 162.416 201.16C162.55 201.267 162.67 201.387 162.776 201.52C162.91 201.653 163.03 201.8 163.136 201.96C163.243 202.093 163.35 202.227 163.456 202.36C163.536 202.52 163.616 202.667 163.696 202.8C163.776 202.933 163.87 203.067 163.976 203.2L164.416 203.84L173.656 218.4V215.76C173.656 214.907 173.643 214.04 173.616 213.16C173.616 212.253 173.603 211.32 173.576 210.36C173.576 209.24 173.576 208.04 173.576 206.76C173.603 205.48 173.643 204.28 173.696 203.16C173.696 202.707 173.83 202.187 174.096 201.6C174.23 201.253 174.456 200.973 174.776 200.76C175.096 200.547 175.456 200.4 175.856 200.32C176.256 200.24 176.656 200.24 177.056 200.32C177.456 200.4 177.803 200.56 178.096 200.8C178.176 200.88 178.256 200.973 178.336 201.08C178.416 201.187 178.483 201.307 178.536 201.44C178.67 201.787 178.75 202.093 178.776 202.36C178.856 202.733 178.896 203.067 178.896 203.36C178.896 206.693 178.896 210.093 178.896 213.56C178.923 217.027 178.95 220.427 178.976 223.76C178.976 224.133 178.99 224.507 179.016 224.88C179.043 225.227 179.043 225.587 179.016 225.96Z" fill="#020817"/>
<g filter="url(#filter0_d_43_85)">
<path d="M130.172 80.8541C129.75 85.4461 130.099 67.9016 110.994 76.3207C91.8896 84.7398 96.747 92.8351 96.747 92.8351M130.172 80.8541C130.594 76.262 148.88 67.9016 164.099 90.2446C178.465 95.2927 181.955 100.483 185.147 112.264M130.172 80.8541C130.172 80.8541 131.394 100.93 130.099 107.73C128.804 114.53 124.123 120.871 119.09 120.683C114.056 120.495 103.899 121.264 95.3895 141.083M96.747 92.8351L112.614 97.3684M96.747 92.8351C62.7466 91.8637 64.0417 147.559 95.3895 141.083M95.3895 141.083C103.334 150.76 107.375 151.808 114.494 152.74M185.147 112.264C188.061 120.683 188.107 127.556 185.147 133.311M185.147 112.264C167.046 113.243 161.562 115.611 158.594 125.864M185.147 133.311H175.433M185.147 133.311C182.005 144.691 178.048 150.073 168.957 154.359M168.957 154.359C156.004 175.083 133.985 167.635 131.718 161.483C129.452 155.331 118.291 161.967 114.494 152.74M168.957 154.359C148.88 143.673 145.095 137.583 130.099 138.169C124.467 139.06 120.005 140.248 114.494 152.74M151.471 102.873C145.642 108.054 145.642 110.321 144.671 116.473" stroke="#020817" stroke-width="11" stroke-linecap="round"/>
<circle cx="89.9466" cy="114.207" r="5.50478" fill="#020817"/>
</g>
<defs>
<filter id="filter0_d_43_85" x="62.0627" y="68.4995" width="134.787" height="113" filterUnits="userSpaceOnUse" color-interpolation-filters="sRGB">
<feFlood flood-opacity="0" result="BackgroundImageFix"/>
<feColorMatrix in="SourceAlpha" type="matrix" values="0 0 0 0 0 0 0 0 0 0 0 0 0 0 0 0 0 0 127 0" result="hardAlpha"/>
<feOffset dy="4"/>
<feGaussianBlur stdDeviation="2"/>
<feComposite in2="hardAlpha" operator="out"/>
<feColorMatrix type="matrix" values="0 0 0 0 0 0 0 0 0 0 0 0 0 0 0 0 0 0 0.25 0"/>
<feBlend mode="normal" in2="BackgroundImageFix" result="effect1_dropShadow_43_85"/>
<feBlend mode="normal" in="SourceGraphic" in2="effect1_dropShadow_43_85" result="shape"/>
</filter>
</defs>
</svg>
